<svg width="124" height="42" viewBox="0 0 124 42" fill="none" xmlns="http://www.w3.org/2000/svg">
<path fill-rule="evenodd" clip-rule="evenodd" d="M20.753 12.573C20.281 12.383 19.338 12.096 18.489 12.096C15.659 12.096 13.489 14.287 13.489 17.525V37.241C13.489 38.385 12.924 39.052 11.415 39.052H1.792C0.849 39.052 2.38419e-09 38.194 2.38419e-09 37.241V2.762C2.38419e-09 1.714 0.849 0.953 1.792 0.953H6.226C7.264 0.953 7.641 1.524 7.924 2.096L9.622 6.287C11.508 3.524 14.999 4.76837e-09 19.904 4.76837e-09C23.924 4.76837e-09 27.036 1.144 27.62 2.678C24.552 5.296 22.174 8.724 20.828 12.597C20.802 12.588 20.778 12.582 20.753 12.573ZM78.437 12.287C74.288 12.287 70.985 15.716 70.985 19.906C70.985 24.193 74.288 27.718 78.437 27.718C82.588 27.718 85.89 24.194 85.89 19.906C85.89 15.716 82.588 12.287 78.437 12.287ZM41.78 12.287C37.629 12.287 34.327 15.716 34.327 19.906C34.327 24.193 37.629 27.718 41.78 27.718C45.93 27.718 49.232 24.194 49.232 19.906C49.232 15.716 45.93 12.287 41.78 12.287ZM78.437 40.005C70.125 40.005 62.943 34.542 60.108 27.003C57.274 34.542 50.091 40.005 41.78 40.005C31.026 40.005 22.159 30.861 22.159 19.906C22.159 9.144 31.026 4.76837e-09 41.78 4.76837e-09C50.091 4.76837e-09 57.274 5.463 60.109 12.914C62.943 5.464 70.126 4.76837e-09 78.438 4.76837e-09C89.193 4.76837e-09 98.059 9.144 98.059 19.906C98.058 30.861 89.192 40.005 78.437 40.005ZM117.053 11.811C116.771 12.383 115.827 12.668 115.073 12.383C115.073 12.383 110.734 10.192 107.054 10.192C105.828 10.192 104.979 10.478 104.979 11.525C104.979 12.477 106.017 13.43 109.225 14.573C116.865 17.24 122.147 20.288 122.147 27.908C122.147 34.576 116.865 40.005 106.206 40.005C99.98 40.005 95.264 38.386 93.378 36.862C93.302 36.796 93.229 36.73 93.159 36.664C95.698 34.292 97.707 31.334 98.971 28.018C100.498 28.74 103.589 30.003 106.489 30.003C107.432 30.003 108.281 29.432 108.281 28.289C108.281 27.337 107.716 26.003 102.905 24.289C101.941 23.952 101.051 23.585 100.228 23.19C100.385 22.111 100.467 21.011 100.467 19.894C100.467 14.133 98.22 8.782 94.564 4.743C96.841 1.866 100.92 4.76837e-09 107.054 4.76837e-09C112.997 4.76837e-09 117.525 1.619 119.601 2.952C120.45 3.524 121.11 4.381 120.543 5.333L117.053 11.811Z" transform="translate(1 1)" fill="white"/>
</svg>
