<svg width="31" height="46" viewBox="0 0 31 46" fill="none" xmlns="http://www.w3.org/2000/svg">
<path fill-rule="evenodd" clip-rule="evenodd" d="M8.00258 0L0 19.2426L0.757577 19.9896L8.00258 16.8333L15.2476 19.9896L16.0052 19.2426L8.00258 0Z" transform="translate(6.28613 0.5)" fill="#4A4A4A"/>
<path d="M0.22 11H0.85C0.97 11 1.05 10.92 1.08 10.85L1.69 9.48H4.96L5.58 10.85C5.62 10.94 5.69 11 5.81 11H6.44C6.59 11 6.67 10.87 6.61 10.74L3.56 4.01C3.53 3.95 3.44 3.9 3.39 3.9H3.29C3.24 3.9 3.15 3.95 3.12 4.01L0.05 10.74C-0.01 10.87 0.07 11 0.22 11ZM2.08 8.62L3.3 5.88H3.35L4.58 8.62H2.08ZM6.9825 8.69C6.9825 10.01 7.8725 11.11 9.0925 11.11C10.0125 11.11 10.6125 10.46 10.6125 10.46L10.7125 10.8C10.7425 10.92 10.8125 11 10.9225 11H11.1625C11.2825 11 11.3825 10.9 11.3825 10.78V4.22C11.3825 4.11 11.2825 4 11.1625 4H10.5925C10.4825 4 10.3725 4.11 10.3725 4.22V6.52C10.2725 6.49 9.8025 6.28 9.2125 6.28C7.9325 6.28 6.9825 7.34 6.9825 8.69ZM7.9825 8.69C7.9825 7.9 8.5625 7.23 9.3225 7.23C9.9225 7.23 10.3825 7.5 10.3825 7.5V9.48C10.3325 9.61 9.9425 10.16 9.2325 10.16C8.4925 10.16 7.9825 9.47 7.9825 8.69ZM14.2801 10.99C14.3101 11.05 14.3801 11.11 14.4801 11.11H14.5401C14.6401 11.11 14.7001 11.05 14.7301 10.99L16.7301 6.64C16.8101 6.5 16.7301 6.38 16.5601 6.38H16.1101C15.9801 6.38 15.8601 6.38 15.8001 6.51L14.5101 9.34H14.4901L13.2601 6.51C13.2201 6.43 13.1701 6.38 13.0601 6.38H12.4501C12.2801 6.38 12.2001 6.5 12.2801 6.64L14.2801 10.99ZM17.6336 10.78C17.6336 10.9 17.7336 11 17.8536 11H18.4136C18.5236 11 18.6336 10.9 18.6336 10.78V6.6C18.6336 6.49 18.5236 6.38 18.4136 6.38H17.8536C17.7336 6.38 17.6336 6.49 17.6336 6.6V10.78ZM18.1336 5.39C18.5136 5.39 18.8136 5.09 18.8136 4.72C18.8136 4.34 18.5136 4.04 18.1336 4.04C17.7636 4.04 17.4736 4.34 17.4736 4.72C17.4736 5.09 17.7636 5.39 18.1336 5.39ZM19.7559 8.69C19.7559 10.01 20.6659 11.11 22.0659 11.11C22.8359 11.11 23.4459 10.83 23.7759 10.54C23.9159 10.42 23.8759 10.33 23.7959 10.23L23.5259 9.81C23.4459 9.69 23.3559 9.72 23.2559 9.79C22.9759 9.99 22.6559 10.18 22.1259 10.18C21.3159 10.18 20.7559 9.54 20.7459 8.92H23.9359C24.0359 8.92 24.1359 8.84 24.1459 8.72C24.1559 8.64 24.1659 8.48 24.1659 8.4C24.1659 7.17 23.2559 6.28 22.0559 6.28C20.6659 6.28 19.7559 7.39 19.7559 8.69ZM20.7959 8.18C20.8659 7.6 21.3059 7.13 22.0359 7.13C22.7159 7.13 23.1559 7.62 23.1759 8.18H20.7959ZM26.5417 11.11C27.5717 11.11 28.1917 10.48 28.1917 9.76C28.1917 8.9 27.5517 8.59 26.7017 8.23C26.2417 8.03 25.9117 7.85 25.9117 7.55C25.9117 7.34 26.1017 7.14 26.5017 7.14C26.8617 7.14 27.1717 7.23 27.4917 7.37C27.5817 7.41 27.7217 7.42 27.7917 7.28L27.9517 6.96C28.0117 6.84 27.9617 6.7 27.8517 6.62C27.6217 6.47 27.1417 6.28 26.5017 6.28C25.3817 6.28 24.9717 6.96 24.9717 7.54C24.9717 8.3 25.5117 8.68 26.2217 9C26.8617 9.29 27.2117 9.49 27.2117 9.8C27.2117 10.06 26.9917 10.25 26.6017 10.25C26.0517 10.25 25.7217 10.06 25.4517 9.91C25.3317 9.84 25.2017 9.87 25.1517 9.97L24.9417 10.4C24.8917 10.5 24.9517 10.59 25.0217 10.64C25.2817 10.82 25.8117 11.11 26.5417 11.11Z" transform="translate(0 27)" fill="#4A4A4A"/>
</svg>
