<svg width="29" height="47" viewBox="0 0 29 47" fill="none" xmlns="http://www.w3.org/2000/svg">
<path d="M2.19223 10.81C2.19223 10.91 2.28223 11 2.38223 11H3.04223C3.15223 11 3.23223 10.91 3.23223 10.81V7.92H6.89223V10.81C6.89223 10.91 6.97223 11 7.08223 11H7.74223C7.84223 11 7.93223 10.91 7.93223 10.81V4.19C7.93223 4.09 7.84223 4 7.74223 4H7.08223C6.97223 4 6.89223 4.09 6.89223 4.19V6.98H3.23223V4.19C3.23223 4.09 3.15223 4 3.04223 4H2.38223C2.28223 4 2.19223 4.09 2.19223 4.19V10.81ZM9.09457 8.68C9.09457 10 10.1546 11.11 11.4546 11.11C12.7446 11.11 13.8046 10 13.8046 8.68C13.8046 7.38 12.7446 6.28 11.4546 6.28C10.1546 6.28 9.09457 7.38 9.09457 8.68ZM10.0746 8.68C10.0746 7.85 10.6746 7.23 11.4546 7.23C12.2246 7.23 12.8246 7.85 12.8246 8.68C12.8246 9.53 12.2246 10.16 11.4546 10.16C10.6746 10.16 10.0746 9.53 10.0746 8.68ZM14.9119 10.78C14.9119 10.9 15.0119 11 15.1319 11H15.6919C15.8019 11 15.9119 10.9 15.9119 10.78V7.9C15.9619 7.74 16.3119 7.23 17.0019 7.23C17.6419 7.23 17.9119 7.67 17.9119 8.42V10.78C17.9119 10.9 18.0019 11 18.1319 11H18.7019C18.8119 11 18.9119 10.9 18.9119 10.78V8.39C18.9119 8.15 18.8919 7.87 18.8719 7.77C18.9519 7.7 19.2819 7.23 19.9819 7.23C20.6119 7.23 20.8919 7.68 20.8919 8.42V10.78C20.8919 10.9 20.9719 11 21.1119 11H21.6719C21.8019 11 21.8919 10.9 21.8919 10.78V8.46C21.8919 7.26 21.5419 6.28 20.1319 6.28C19.2519 6.28 18.7019 6.88 18.5719 7.01C18.2319 6.54 17.8319 6.28 17.1619 6.28C16.2819 6.28 15.7919 6.81 15.6919 6.92L15.5619 6.52C15.5319 6.43 15.4719 6.38 15.3619 6.38H15.1319C15.0119 6.38 14.9119 6.49 14.9119 6.6V10.78ZM22.962 8.69C22.962 10.01 23.872 11.11 25.272 11.11C26.042 11.11 26.652 10.83 26.982 10.54C27.122 10.42 27.082 10.33 27.002 10.23L26.732 9.81C26.652 9.69 26.562 9.72 26.462 9.79C26.182 9.99 25.862 10.18 25.332 10.18C24.522 10.18 23.962 9.54 23.952 8.92H27.142C27.242 8.92 27.342 8.84 27.352 8.72C27.362 8.64 27.372 8.48 27.372 8.4C27.372 7.17 26.462 6.28 25.262 6.28C23.872 6.28 22.962 7.39 22.962 8.69ZM24.002 8.18C24.072 7.6 24.512 7.13 25.242 7.13C25.922 7.13 26.362 7.62 26.382 8.18H24.002Z" transform="translate(0 28)" fill="#4A4A4A"/>
<path fill-rule="evenodd" clip-rule="evenodd" d="M8.53608 17.8854V11.5729H12.8041V17.8854H18.1392V9.46875H21.3402L10.6701 0L0 9.46875H3.20103V17.8854H8.53608Z" transform="translate(4.13403 0.708313)" fill="#4A4A4A"/>
</svg>
