<svg width="32" height="45" viewBox="0 0 32 45" fill="none" xmlns="http://www.w3.org/2000/svg">
<circle cx="11" cy="11" r="11" transform="translate(5)" fill="#4A4A4A"/>
<path d="M11 6.15791C11 9.0312 8.73709 11.3158 6 11.3158C3.26291 11.3158 1 9.0312 1 6.15791C1 3.28463 3.26291 1 6 1C8.73709 1 11 3.28463 11 6.15791Z" transform="translate(10 4.68414)" stroke="white" stroke-width="2"/>
<rect width="6.66667" height="6.15791" transform="translate(12.6667 5.36847)" fill="#4A4A4A"/>
<ellipse cx="0.666667" cy="0.684213" rx="0.666667" ry="0.684213" transform="translate(18.0002 4.68414)" fill="#4A4A4A"/>
<ellipse cx="0.666667" cy="0.684213" rx="0.666667" ry="0.684213" transform="translate(12.6667 4.68414)" fill="#4A4A4A"/>
<rect width="3.33333" height="1.36843" transform="translate(13.3333 4.68414)" fill="#4A4A4A"/>
<rect width="2.66667" height="1.36843" transform="translate(16 4.68414)" fill="#4A4A4A"/>
<path d="M0 6.06668V0" transform="translate(16 4)" stroke="white" stroke-width="2" stroke-linejoin="round"/>
<path d="M1.95883 10.81C1.95883 10.91 2.03883 11 2.14883 11H5.70883C5.81883 11 5.89883 10.91 5.89883 10.81V10.26C5.89883 10.16 5.81883 10.07 5.70883 10.07H2.99883V4.19C2.99883 4.09 2.90883 4 2.80883 4H2.14883C2.03883 4 1.95883 4.09 1.95883 4.19V10.81ZM6.36117 8.68C6.36117 10 7.42117 11.11 8.72117 11.11C10.0112 11.11 11.0712 10 11.0712 8.68C11.0712 7.38 10.0112 6.28 8.72117 6.28C7.42117 6.28 6.36117 7.38 6.36117 8.68ZM7.34117 8.68C7.34117 7.85 7.94117 7.23 8.72117 7.23C9.49117 7.23 10.0912 7.85 10.0912 8.68C10.0912 9.53 9.49117 10.16 8.72117 10.16C7.94117 10.16 7.34117 9.53 7.34117 8.68ZM12.8985 8.69C12.8985 7.91 13.4185 7.23 14.2085 7.23C14.8285 7.23 15.2285 7.71 15.3185 7.88V9.79C15.3185 9.79 14.8585 10.16 14.2485 10.16C13.4985 10.16 12.8985 9.48 12.8985 8.69ZM16.3185 6.6C16.3185 6.49 16.2185 6.38 16.0985 6.38H15.8285C15.7185 6.38 15.6885 6.45 15.6585 6.54L15.5385 6.83C15.4585 6.75 14.9385 6.28 14.0785 6.28C12.8085 6.28 11.8985 7.37 11.8985 8.69C11.8985 10.04 12.8685 11.11 14.1285 11.11C14.7285 11.11 15.2285 10.83 15.3085 10.78V11.03C15.3085 11.97 14.7685 12.27 14.1585 12.27C13.6285 12.27 13.2385 11.97 13.0785 11.84C12.9585 11.75 12.8285 11.79 12.7685 11.91L12.5285 12.35C12.4885 12.42 12.4985 12.56 12.5785 12.61C12.7785 12.81 13.4085 13.19 14.1785 13.19C15.3885 13.19 16.3185 12.47 16.3185 11.03V6.6ZM20.068 8.99C20.068 10.2 20.408 11.11 21.788 11.11C22.728 11.11 23.148 10.58 23.248 10.48L23.368 10.81C23.408 10.92 23.458 11 23.578 11H23.818C23.938 11 24.048 10.9 24.048 10.78V6.6C24.048 6.49 23.938 6.38 23.818 6.38H23.308C23.138 6.38 23.048 6.41 23.048 6.6V9.4C23.008 9.61 22.638 10.16 21.968 10.16C21.378 10.16 21.068 9.82 21.068 9.06V6.6C21.068 6.49 20.968 6.38 20.848 6.38H20.288C20.178 6.38 20.068 6.49 20.068 6.6V8.99ZM25.45 10.78C25.45 10.9 25.55 11 25.67 11H26.23C26.34 11 26.45 10.9 26.45 10.78V6.6C26.45 6.49 26.34 6.38 26.23 6.38H25.67C25.55 6.38 25.45 6.49 25.45 6.6V10.78ZM25.95 5.39C26.33 5.39 26.63 5.09 26.63 4.72C26.63 4.34 26.33 4.04 25.95 4.04C25.58 4.04 25.29 4.34 25.29 4.72C25.29 5.09 25.58 5.39 25.95 5.39ZM28.1623 9.73C28.1623 10.55 28.4123 11.11 29.3323 11.11C29.8823 11.11 30.4223 10.9 30.6123 10.78C30.7223 10.71 30.7723 10.63 30.7223 10.51L30.5423 10.04C30.5023 9.94 30.4123 9.86 30.2723 9.94C30.1023 10.04 29.8223 10.16 29.5323 10.16C29.3123 10.16 29.1623 10.08 29.1623 9.69V7.23H30.3823C30.5023 7.23 30.6023 7.12 30.6023 7.01V6.6C30.6023 6.47 30.5023 6.38 30.3823 6.38H29.1623V5.09C29.1623 4.97 29.0723 4.87 28.9523 4.87H28.3823C28.2623 4.87 28.1623 4.97 28.1623 5.09V6.38H27.6323C27.5023 6.38 27.4123 6.47 27.4123 6.6V7.01C27.4123 7.12 27.5023 7.23 27.6323 7.23H28.1623V9.73Z" transform="translate(0 26)" fill="#4A4A4A"/>
</svg>
