<svg width="54" height="67" viewBox="0 0 54 67" fill="none" xmlns="http://www.w3.org/2000/svg">
<path fill-rule="evenodd" clip-rule="evenodd" d="M26.6753 52.6042C41.4076 52.6042 53.3505 40.8283 53.3505 26.3021C53.3505 11.7758 41.4076 0 26.6753 0C11.9429 0 0 11.7758 0 26.3021C0 40.8283 11.9429 52.6042 26.6753 52.6042Z" transform="translate(0 7.04169)" fill="#127ECF"/>
<path d="M12.48 43.656C12.48 44.136 12.912 44.52 13.392 44.52H15.408C15.888 44.52 16.32 44.136 16.32 43.656V36.312H23.712C24.192 36.312 24.576 35.88 24.576 35.4V33.384C24.576 32.904 24.192 32.472 23.712 32.472H16.32V25.032C16.32 24.552 15.888 24.168 15.408 24.168H13.392C12.912 24.168 12.48 24.552 12.48 25.032V32.472H5.088C4.608 32.472 4.176 32.904 4.176 33.384V35.4C4.176 35.88 4.608 36.312 5.088 36.312H12.48V43.656Z" transform="translate(11.7371)" fill="white"/>
</svg>
