<svg width="50" height="48" viewBox="0 0 50 48" fill="none" xmlns="http://www.w3.org/2000/svg">
<path d="M0.685078 7.51C0.685078 9.51 2.29508 11.1 4.29508 11.1C5.18508 11.1 6.04508 10.79 6.72508 10.13C6.79508 10.06 6.81508 9.93 6.73508 9.86L6.27508 9.41C6.21508 9.36 6.12508 9.35 6.03508 9.42C5.55508 9.79 5.04508 10.08 4.31508 10.08C2.88508 10.08 1.79508 8.89 1.79508 7.49C1.79508 6.09 2.87508 4.89 4.30508 4.89C4.92508 4.89 5.56508 5.15 6.03508 5.56C6.12508 5.65 6.21508 5.65 6.28508 5.56L6.72508 5.11C6.80508 5.03 6.80508 4.91 6.71508 4.83C6.03508 4.24 5.30508 3.9 4.29508 3.9C2.29508 3.9 0.685078 5.51 0.685078 7.51ZM7.49984 8.68C7.49984 10 8.55984 11.11 9.85984 11.11C11.1498 11.11 12.2098 10 12.2098 8.68C12.2098 7.38 11.1498 6.28 9.85984 6.28C8.55984 6.28 7.49984 7.38 7.49984 8.68ZM8.47984 8.68C8.47984 7.85 9.07984 7.23 9.85984 7.23C10.6298 7.23 11.2298 7.85 11.2298 8.68C11.2298 9.53 10.6298 10.16 9.85984 10.16C9.07984 10.16 8.47984 9.53 8.47984 8.68ZM13.3172 10.78C13.3172 10.9 13.4172 11 13.5372 11H14.0472C14.2372 11 14.3172 10.93 14.3172 10.78V7.9C14.3872 7.74 14.8072 7.23 15.5372 7.23C16.1372 7.23 16.4472 7.67 16.4472 8.42V10.78C16.4472 10.9 16.5472 11 16.6672 11H17.2272C17.3372 11 17.4472 10.9 17.4472 10.78V8.46C17.4472 7.26 17.0672 6.28 15.6572 6.28C14.7372 6.28 14.2072 6.8 14.1072 6.92L13.9672 6.52C13.9472 6.43 13.8772 6.38 13.7772 6.38H13.5372C13.4172 6.38 13.3172 6.49 13.3172 6.6V10.78ZM19.0471 9.73C19.0471 10.55 19.2971 11.11 20.2171 11.11C20.7671 11.11 21.3071 10.9 21.4971 10.78C21.6071 10.71 21.6571 10.63 21.6071 10.51L21.4271 10.04C21.3871 9.94 21.2971 9.86 21.1571 9.94C20.9871 10.04 20.7071 10.16 20.4171 10.16C20.1971 10.16 20.0471 10.08 20.0471 9.69V7.23H21.2671C21.3871 7.23 21.4871 7.12 21.4871 7.01V6.6C21.4871 6.47 21.3871 6.38 21.2671 6.38H20.0471V5.09C20.0471 4.97 19.9571 4.87 19.8371 4.87H19.2671C19.1471 4.87 19.0471 4.97 19.0471 5.09V6.38H18.5171C18.3871 6.38 18.2971 6.47 18.2971 6.6V7.01C18.2971 7.12 18.3871 7.23 18.5171 7.23H19.0471V9.73ZM22.5359 10.78C22.5359 10.9 22.6359 11 22.7559 11H23.2159C23.4059 11 23.5359 10.98 23.5359 10.78V7.85C23.5759 7.77 23.9459 7.23 24.6259 7.23C24.7659 7.23 24.9759 7.28 25.0459 7.32C25.1459 7.37 25.2659 7.34 25.3259 7.21L25.5659 6.71C25.7159 6.4 25.1659 6.28 24.7259 6.28C23.8859 6.28 23.4059 6.84 23.3259 6.96L23.1959 6.54C23.1759 6.45 23.0859 6.38 22.9959 6.38H22.7559C22.6359 6.38 22.5359 6.49 22.5359 6.6V10.78ZM26.0043 9.57C26.0043 10.53 26.6243 11.11 27.4943 11.11C28.2043 11.11 28.6643 10.77 28.9143 10.53L29.0243 10.84C29.0743 10.96 29.1243 11 29.2143 11H29.5443C29.6543 11 29.7643 10.9 29.7643 10.78V8.32C29.7643 7.17 29.6243 6.28 28.1443 6.28C27.2943 6.28 26.6343 6.51 26.5543 6.54C26.4443 6.58 26.3743 6.65 26.4043 6.81L26.4943 7.19C26.5243 7.32 26.6143 7.41 26.7543 7.38C26.9943 7.31 27.5143 7.16 28.0443 7.16C28.6243 7.16 28.8043 7.49 28.7843 8.22C28.7843 8.22 28.3343 8.08 27.8543 8.08C26.6643 8.08 26.0043 8.72 26.0043 9.57ZM26.9843 9.56C26.9843 9.08 27.3943 8.8 27.9343 8.8C28.3543 8.8 28.7143 8.92 28.7743 8.96V9.73C28.6343 9.96 28.1643 10.29 27.7043 10.29C27.2243 10.29 26.9843 9.97 26.9843 9.56ZM30.8299 8.7C30.8299 10.09 31.8999 11.11 33.1899 11.11C33.9899 11.11 34.6099 10.72 34.9899 10.15C35.0699 10.03 35.0199 9.92 34.9099 9.82L34.5999 9.57C34.4999 9.49 34.3899 9.49 34.2899 9.59C34.0399 9.82 33.7999 10.16 33.1999 10.16C32.4299 10.16 31.8299 9.52 31.8299 8.69C31.8299 7.87 32.4399 7.23 33.2299 7.23C33.5999 7.23 33.9699 7.46 34.1799 7.69C34.2599 7.77 34.3499 7.86 34.4799 7.74L34.8399 7.41C34.9399 7.32 34.9699 7.19 34.8799 7.08C34.4499 6.55 33.9199 6.28 33.1999 6.28C31.9199 6.28 30.8299 7.34 30.8299 8.7ZM36.3518 9.73C36.3518 10.55 36.6018 11.11 37.5218 11.11C38.0718 11.11 38.6118 10.9 38.8018 10.78C38.9118 10.71 38.9618 10.63 38.9118 10.51L38.7318 10.04C38.6918 9.94 38.6018 9.86 38.4618 9.94C38.2918 10.04 38.0118 10.16 37.7218 10.16C37.5018 10.16 37.3518 10.08 37.3518 9.69V7.23H38.5718C38.6918 7.23 38.7918 7.12 38.7918 7.01V6.6C38.7918 6.47 38.6918 6.38 38.5718 6.38H37.3518V5.09C37.3518 4.97 37.2618 4.87 37.1418 4.87H36.5718C36.4518 4.87 36.3518 4.97 36.3518 5.09V6.38H35.8218C35.6918 6.38 35.6018 6.47 35.6018 6.6V7.01C35.6018 7.12 35.6918 7.23 35.8218 7.23H36.3518V9.73ZM39.5606 8.69C39.5606 10.01 40.4706 11.11 41.8706 11.11C42.6406 11.11 43.2506 10.83 43.5806 10.54C43.7206 10.42 43.6806 10.33 43.6006 10.23L43.3306 9.81C43.2506 9.69 43.1606 9.72 43.0606 9.79C42.7806 9.99 42.4606 10.18 41.9306 10.18C41.1206 10.18 40.5606 9.54 40.5506 8.92H43.7406C43.8406 8.92 43.9406 8.84 43.9506 8.72C43.9606 8.64 43.9706 8.48 43.9706 8.4C43.9706 7.17 43.0606 6.28 41.8606 6.28C40.4706 6.28 39.5606 7.39 39.5606 8.69ZM40.6006 8.18C40.6706 7.6 41.1106 7.13 41.8406 7.13C42.5206 7.13 42.9606 7.62 42.9806 8.18H40.6006ZM45.0164 10.78C45.0164 10.9 45.1164 11 45.2364 11H45.7464C45.9364 11 46.0164 10.93 46.0164 10.78V7.9C46.0864 7.74 46.5064 7.23 47.2364 7.23C47.8364 7.23 48.1464 7.67 48.1464 8.42V10.78C48.1464 10.9 48.2464 11 48.3664 11H48.9264C49.0364 11 49.1464 10.9 49.1464 10.78V8.46C49.1464 7.26 48.7664 6.28 47.3564 6.28C46.4364 6.28 45.9064 6.8 45.8064 6.92L45.6664 6.52C45.6464 6.43 45.5764 6.38 45.4764 6.38H45.2364C45.1164 6.38 45.0164 6.49 45.0164 6.6V10.78Z" transform="translate(0 29)" fill="#4A4A4A"/>
<path fill-rule="evenodd" clip-rule="evenodd" d="M16.0051 15.7812H3.20093V13.6771H16.0051V15.7812ZM16.0051 11.5729H3.20093V9.46875H16.0051V11.5729ZM16.0051 7.36459H3.20093V5.26042H16.0051V7.36459ZM0 21.0417L1.60052 19.4635L3.20103 21.0417L4.80155 19.4635L6.40206 21.0417L8.00258 19.4635L9.60309 21.0417L11.2036 19.4635L12.8041 21.0417L14.4046 19.4635L16.0052 21.0417L17.6057 19.4635L19.2062 21.0417V0L17.6057 1.57812L16.0052 0L14.4046 1.57812L12.8041 0L11.2036 1.57812L9.60309 0L8.00258 1.57812L6.40206 0L4.80155 1.57812L3.20103 0L1.60052 1.57812L0 0V21.0417Z" transform="translate(15.2009 0.65625)" fill="#4A4A4A"/>
</svg>
