<svg width="31" height="41" viewBox="0 0 31 41" fill="none" xmlns="http://www.w3.org/2000/svg">
<path d="M23.4 3.42C23.4 5.28 24.96 6.84 26.82 6.84C28.74 6.84 30.24 5.28 30.24 3.42C30.24 1.5 28.74 0 26.82 0C24.96 0 23.4 1.5 23.4 3.42ZM11.58 3.42C11.58 5.28 13.14 6.84 15 6.84C16.92 6.84 18.42 5.28 18.42 3.42C18.42 1.5 16.92 0 15 0C13.14 0 11.58 1.5 11.58 3.42ZM0 3.42C0 5.28 1.56 6.84 3.42 6.84C5.34 6.84 6.84 5.28 6.84 3.42C6.84 1.5 5.34 0 3.42 0C1.56 0 0 1.5 0 3.42Z" transform="translate(0.419922 0.76001)" fill="#4A4A4A"/>
<path d="M1.60816 10.77C1.58816 10.91 1.65816 11 1.79816 11H2.44816C2.52816 11 2.61816 10.93 2.62816 10.86L3.34816 6.39C3.35816 6.39 3.37816 6.39 3.38816 6.39L5.19816 10.99C5.21816 11.05 5.28816 11.1 5.36816 11.1H5.54816C5.63816 11.1 5.69816 11.05 5.71816 10.99L7.51816 6.39C7.51816 6.39 7.53816 6.39 7.54816 6.39L8.28816 10.86C8.30816 10.93 8.38816 11 8.47816 11H9.12816C9.26816 11 9.33816 10.91 9.30816 10.77L8.07816 4.05C8.05816 3.97 7.97816 3.9 7.89816 3.9H7.73816C7.66816 3.9 7.58816 3.95 7.56816 4.01L5.48816 9.12H5.44816L3.35816 4.01C3.33816 3.95 3.24816 3.9 3.18816 3.9H3.02816C2.94816 3.9 2.86816 3.97 2.84816 4.05L1.60816 10.77ZM10.0929 8.69C10.0929 10.01 11.0029 11.11 12.4029 11.11C13.1729 11.11 13.7829 10.83 14.1129 10.54C14.2529 10.42 14.2129 10.33 14.1329 10.23L13.8629 9.81C13.7829 9.69 13.6929 9.72 13.5929 9.79C13.3129 9.99 12.9929 10.18 12.4629 10.18C11.6529 10.18 11.0929 9.54 11.0829 8.92H14.2729C14.3729 8.92 14.4729 8.84 14.4829 8.72C14.4929 8.64 14.5029 8.48 14.5029 8.4C14.5029 7.17 13.5929 6.28 12.3929 6.28C11.0029 6.28 10.0929 7.39 10.0929 8.69ZM11.1329 8.18C11.2029 7.6 11.6429 7.13 12.3729 7.13C13.0529 7.13 13.4929 7.62 13.5129 8.18H11.1329ZM15.2686 8.69C15.2686 10.01 16.1786 11.11 17.5786 11.11C18.3486 11.11 18.9586 10.83 19.2886 10.54C19.4286 10.42 19.3886 10.33 19.3086 10.23L19.0386 9.81C18.9586 9.69 18.8686 9.72 18.7686 9.79C18.4886 9.99 18.1686 10.18 17.6386 10.18C16.8286 10.18 16.2686 9.54 16.2586 8.92H19.4486C19.5486 8.92 19.6486 8.84 19.6586 8.72C19.6686 8.64 19.6786 8.48 19.6786 8.4C19.6786 7.17 18.7686 6.28 17.5686 6.28C16.1786 6.28 15.2686 7.39 15.2686 8.69ZM16.3086 8.18C16.3786 7.6 16.8186 7.13 17.5486 7.13C18.2286 7.13 18.6686 7.62 18.6886 8.18H16.3086ZM20.7244 10.78C20.7244 10.9 20.8244 11 20.9444 11H21.4044C21.5944 11 21.7244 10.98 21.7244 10.78V7.85C21.7644 7.77 22.1344 7.23 22.8144 7.23C22.9544 7.23 23.1644 7.28 23.2344 7.32C23.3344 7.37 23.4544 7.34 23.5144 7.21L23.7544 6.71C23.9044 6.4 23.3544 6.28 22.9144 6.28C22.0744 6.28 21.5944 6.84 21.5144 6.96L21.3844 6.54C21.3644 6.45 21.2744 6.38 21.1844 6.38H20.9444C20.8244 6.38 20.7244 6.49 20.7244 6.6V10.78Z" transform="translate(3 22)" fill="#4A4A4A"/>
</svg>
