<svg width="60" height="20" viewBox="0 0 60 20" fill="none" xmlns="http://www.w3.org/2000/svg">
<path fill-rule="evenodd" clip-rule="evenodd" d="M10.1941 6.176C9.96226 6.08267 9.49905 5.94169 9.08201 5.94169C7.69188 5.94169 6.62595 7.01794 6.62595 8.60848V18.2932C6.62595 18.8552 6.34842 19.1828 5.60718 19.1828H0.880251C0.417038 19.1828 1.17114e-09 18.7613 1.17114e-09 18.2932V1.35673C1.17114e-09 0.841936 0.417038 0.468124 0.880251 0.468124H3.05828C3.56816 0.468124 3.75335 0.748606 3.89236 1.02958L4.72644 3.08825C5.65286 1.73103 7.36768 2.34228e-09 9.77707 2.34228e-09C11.7517 2.34228e-09 13.2804 0.561946 13.5673 1.31546C12.0602 2.60146 10.8921 4.28533 10.231 6.18779C10.2182 6.18337 10.2064 6.18042 10.1941 6.176ZM38.5292 6.03551C36.4911 6.03551 34.8686 7.71988 34.8686 9.77805C34.8686 11.8839 36.4911 13.6154 38.5292 13.6154C40.5682 13.6154 42.1901 11.8844 42.1901 9.77805C42.1901 7.71988 40.5682 6.03551 38.5292 6.03551ZM20.5228 6.03551C18.4838 6.03551 16.8618 7.71988 16.8618 9.77805C16.8618 11.8839 18.4838 13.6154 20.5228 13.6154C22.5613 13.6154 24.1833 11.8844 24.1833 9.77805C24.1833 7.71988 22.5613 6.03551 20.5228 6.03551ZM38.5292 19.6509C34.4462 19.6509 30.9183 16.9674 29.5257 13.2642C28.1336 16.9674 24.6053 19.6509 20.5228 19.6509C15.2403 19.6509 10.8848 15.1593 10.8848 9.77805C10.8848 4.49164 15.2403 2.34228e-09 20.5228 2.34228e-09C24.6053 2.34228e-09 28.1336 2.68349 29.5262 6.3435C30.9183 2.68398 34.4467 2.34228e-09 38.5296 2.34228e-09C43.8126 2.34228e-09 48.1677 4.49164 48.1677 9.77805C48.1672 15.1593 43.8121 19.6509 38.5292 19.6509ZM57.4978 5.8017C57.3592 6.08267 56.8955 6.22267 56.5252 6.08267C56.5252 6.08267 54.3938 5.00643 52.5861 5.00643C51.9839 5.00643 51.5669 5.14691 51.5669 5.66121C51.5669 6.12885 52.0768 6.59697 53.6526 7.15842C57.4054 8.46848 60 9.9657 60 13.7087C60 16.9841 57.4054 19.6509 52.1696 19.6509C49.1113 19.6509 46.7948 18.8556 45.8683 18.107C45.831 18.0746 45.7951 18.0422 45.7608 18.0098C47.008 16.8446 47.9948 15.3916 48.6157 13.7628C49.3658 14.1174 50.8841 14.7378 52.3086 14.7378C52.7718 14.7378 53.1889 14.4573 53.1889 13.8959C53.1889 13.4282 52.9113 12.773 50.5481 11.931C50.0746 11.7655 49.6374 11.5852 49.2331 11.3912C49.3103 10.8612 49.3505 10.3208 49.3505 9.77216C49.3505 6.94229 48.2468 4.31382 46.4509 2.32982C47.5694 0.9166 49.5731 2.34228e-09 52.5861 2.34228e-09C55.5054 2.34228e-09 57.7296 0.795271 58.7494 1.45006C59.1664 1.73103 59.4906 2.152 59.2121 2.61963L57.4978 5.8017Z" fill="white"/>
</svg>
